<?xml version="1.0" encoding="UTF-8" standalone="no"?>
<!-- Created with Inkscape (http://www.inkscape.org/) -->

<svg
   width="48"
   height="48"
   viewBox="0 0 12.7 12.7"
   version="1.1"
   id="svg12684"
   inkscape:version="1.1 (ce6663b3b7, 2021-05-25)"
   sodipodi:docname="head_1.svg"
   xmlns:inkscape="http://www.inkscape.org/namespaces/inkscape"
   xmlns:sodipodi="http://sodipodi.sourceforge.net/DTD/sodipodi-0.dtd"
   xmlns="http://www.w3.org/2000/svg"
   xmlns:svg="http://www.w3.org/2000/svg">
  <sodipodi:namedview
     id="namedview12686"
     pagecolor="#ffffff"
     bordercolor="#666666"
     borderopacity="1.0"
     inkscape:pageshadow="2"
     inkscape:pageopacity="0.0"
     inkscape:pagecheckerboard="0"
     inkscape:document-units="mm"
     showgrid="false"
     units="px"
     inkscape:zoom="3.0075197"
     inkscape:cx="-5.4862484"
     inkscape:cy="50.041235"
     inkscape:window-width="1848"
     inkscape:window-height="1016"
     inkscape:window-x="72"
     inkscape:window-y="27"
     inkscape:window-maximized="1"
     inkscape:current-layer="layer1" />
  <defs
     id="defs12681" />
  <g
     inkscape:label="Layer 1"
     inkscape:groupmode="layer"
     id="layer1">
    <path
       id="path12254"
       style="stroke-width:0.165895;paint-order:fill markers stroke"
       d="m 5.0100035,0.03799729 c -1.020272,0 -1.841621,0.821518 -1.841621,1.84179201 v 2.61695 l -1.053432,8.2412577 h 1.634672 v -1.053433 h 5.676088 v 1.053433 H 10.971396 L 9.9179639,4.4967393 v -2.61695 c 0,-1.02027401 -0.8213464,-1.84179201 -1.8416204,-1.84179201 z m 0.228552,4.42222201 a 0.69473345,0.69473345 0 0 1 0.04955,0.0017 0.69473345,0.69473345 0 0 1 0.04938,0.0053 0.69473345,0.69473345 0 0 1 0.04869,0.0089 0.69473345,0.69473345 0 0 1 0.04818,0.01217 0.69473345,0.69473345 0 0 1 0.04698,0.0156 0.69473345,0.69473345 0 0 1 0.04578,0.01903 0.69473345,0.69473345 0 0 1 0.04441,0.02229 0.69473345,0.69473345 0 0 1 0.04269,0.0252 0.69473345,0.69473345 0 0 1 0.04064,0.02829 0.69473345,0.69473345 0 0 1 0.03875,0.0312 0.69473345,0.69473345 0 0 1 0.03618,0.03378 0.69473345,0.69473345 0 0 1 0.03378,0.03618 0.69473345,0.69473345 0 0 1 0.0312,0.03875 0.69473345,0.69473345 0 0 1 0.02829,0.04063 0.69473345,0.69473345 0 0 1 0.0252,0.04269 0.69473345,0.69473345 0 0 1 0.02229,0.04441 0.69473345,0.69473345 0 0 1 0.01903,0.04578 0.69473345,0.69473345 0 0 1 0.0156,0.04698 0.69473345,0.69473345 0 0 1 0.01217,0.04818 0.69473345,0.69473345 0 0 1 0.0089,0.04869 0.69473345,0.69473345 0 0 1 0.0053,0.04938 0.69473345,0.69473345 0 0 1 0.0017,0.04955 0.69473345,0.69473345 0 0 1 -0.01337,0.135451 0.69473345,0.69473345 0 0 1 -0.03961,0.130307 0.69473345,0.69473345 0 0 1 -0.06412,0.120191 0.69473345,0.69473345 0 0 1 -0.08641,0.105275 0.69473345,0.69473345 0 0 1 -0.105274,0.08624 0.69473345,0.69473345 0 0 1 -0.120192,0.0643 0.69473345,0.69473345 0 0 1 -0.130307,0.03943 0.69473345,0.69473345 0 0 1 -0.135452,0.01337 0.69473345,0.69473345 0 0 1 -0.13545,-0.01337 0.69473345,0.69473345 0 0 1 -0.130308,-0.03943 0.69473345,0.69473345 0 0 1 -0.120191,-0.0643 0.69473345,0.69473345 0 0 1 -0.105275,-0.08624 0.69473345,0.69473345 0 0 1 -0.08641,-0.105275 0.69473345,0.69473345 0 0 1 -0.06412,-0.120191 0.69473345,0.69473345 0 0 1 -0.03961,-0.130307 0.69473345,0.69473345 0 0 1 -0.01337,-0.135451 0.69473345,0.69473345 0 0 1 0.01337,-0.135623 0.69473345,0.69473345 0 0 1 0.03943,-0.130308 0.69473345,0.69473345 0 0 1 0.0643,-0.12002 0.69473345,0.69473345 0 0 1 0.08641,-0.105274 0.69473345,0.69473345 0 0 1 0.105275,-0.08641 0.69473345,0.69473345 0 0 1 0.12002,-0.0643 0.69473345,0.69473345 0 0 1 0.130307,-0.03943 0.69473345,0.69473345 0 0 1 0.135622,-0.01337 z m 2.393713,0 a 0.69473345,0.69473345 0 0 1 0.04955,0.0017 0.69473345,0.69473345 0 0 1 0.04938,0.0053 0.69473345,0.69473345 0 0 1 0.04869,0.0089 0.69473345,0.69473345 0 0 1 0.04818,0.01217 0.69473345,0.69473345 0 0 1 0.04698,0.0156 0.69473345,0.69473345 0 0 1 0.04578,0.01903 0.69473345,0.69473345 0 0 1 0.04441,0.02229 0.69473345,0.69473345 0 0 1 0.04269,0.0252 0.69473345,0.69473345 0 0 1 0.04064,0.02829 0.69473345,0.69473345 0 0 1 0.03875,0.0312 0.69473345,0.69473345 0 0 1 0.03618,0.03378 0.69473345,0.69473345 0 0 1 0.03378,0.03618 0.69473345,0.69473345 0 0 1 0.0312,0.03875 0.69473345,0.69473345 0 0 1 0.02829,0.04063 0.69473345,0.69473345 0 0 1 0.0252,0.04269 0.69473345,0.69473345 0 0 1 0.02229,0.04441 0.69473345,0.69473345 0 0 1 0.01903,0.04578 0.69473345,0.69473345 0 0 1 0.0156,0.04698 0.69473345,0.69473345 0 0 1 0.01217,0.04818 0.69473345,0.69473345 0 0 1 0.0089,0.04869 0.69473345,0.69473345 0 0 1 0.0053,0.04938 0.69473345,0.69473345 0 0 1 0.0017,0.04955 0.69473345,0.69473345 0 0 1 -0.01337,0.135451 0.69473345,0.69473345 0 0 1 -0.03961,0.130307 0.69473345,0.69473345 0 0 1 -0.06413,0.120191 0.69473345,0.69473345 0 0 1 -0.08641,0.105275 0.69473345,0.69473345 0 0 1 -0.105274,0.08624 0.69473345,0.69473345 0 0 1 -0.120191,0.0643 0.69473345,0.69473345 0 0 1 -0.130308,0.03943 0.69473345,0.69473345 0 0 1 -0.135451,0.01337 0.69473345,0.69473345 0 0 1 -0.135451,-0.01337 0.69473345,0.69473345 0 0 1 -0.130307,-0.03943 0.69473345,0.69473345 0 0 1 -0.120192,-0.0643 0.69473345,0.69473345 0 0 1 -0.105275,-0.08624 0.69473345,0.69473345 0 0 1 -0.08641,-0.105275 0.69473345,0.69473345 0 0 1 -0.06412,-0.120191 0.69473345,0.69473345 0 0 1 -0.03961,-0.130307 0.69473345,0.69473345 0 0 1 -0.01337,-0.135451 0.69473345,0.69473345 0 0 1 0.01337,-0.135623 0.69473345,0.69473345 0 0 1 0.03944,-0.130308 0.69473345,0.69473345 0 0 1 0.0643,-0.12002 0.69473345,0.69473345 0 0 1 0.08641,-0.105274 0.69473345,0.69473345 0 0 1 0.105275,-0.08641 0.69473345,0.69473345 0 0 1 0.12002,-0.0643 0.69473345,0.69473345 0 0 1 0.130308,-0.03943 0.69473345,0.69473345 0 0 1 0.135622,-0.01337 z" />
  </g>
</svg>
