<?xml version="1.0" encoding="UTF-8" standalone="no"?>
<!-- Created with Inkscape (http://www.inkscape.org/) -->

<svg
   width="48"
   height="48"
   viewBox="0 0 12.7 12.7"
   version="1.1"
   id="svg5"
   inkscape:version="1.1 (ce6663b3b7, 2021-05-25)"
   xmlns:inkscape="http://www.inkscape.org/namespaces/inkscape"
   xmlns:sodipodi="http://sodipodi.sourceforge.net/DTD/sodipodi-0.dtd"
   xmlns="http://www.w3.org/2000/svg"
   xmlns:svg="http://www.w3.org/2000/svg">
  <sodipodi:namedview
     id="namedview7"
     pagecolor="#ffffff"
     bordercolor="#666666"
     borderopacity="1.0"
     inkscape:pageshadow="2"
     inkscape:pageopacity="0.0"
     inkscape:pagecheckerboard="0"
     inkscape:document-units="mm"
     showgrid="false"
     units="px"
     width="48px"
     inkscape:zoom="3.0075196"
     inkscape:cx="49.376236"
     inkscape:cy="39.401239"
     inkscape:window-width="1848"
     inkscape:window-height="1016"
     inkscape:window-x="72"
     inkscape:window-y="27"
     inkscape:window-maximized="1"
     inkscape:current-layer="layer1" />
  <defs
     id="defs2" />
  <g
     inkscape:label="Layer 1"
     inkscape:groupmode="layer"
     id="layer1">
    <path
       id="path2658"
       style="stroke-width:0.119652;paint-order:fill markers stroke"
       d="M 1.5975506,0 2.1170656,1.9612012 3.2567603,12.7 H 4.2088865 V 9.3948171 H 8.7983156 V 12.7 H 9.7857955 L 10.92549,1.9612012 11.445006,0 H 8.3434134 L 7.823898,1.9612012 H 5.2186578 L 4.6991424,0 Z M 5.2827481,4.4093504 A 0.70568012,0.70568012 0 0 1 5.9884399,5.1150415 0.70568012,0.70568012 0 0 1 5.2827481,5.8205583 0.70568012,0.70568012 0 0 1 4.5770573,5.1150415 0.70568012,0.70568012 0 0 1 5.2827481,4.4093504 Z m 2.4314298,0 A 0.70568012,0.70568012 0 0 1 8.419869,5.1150415 0.70568012,0.70568012 0 0 1 7.7141779,5.8205583 0.70568012,0.70568012 0 0 1 7.0084872,5.1150415 0.70568012,0.70568012 0 0 1 7.7141779,4.4093504 Z" />
  </g>
</svg>
