<?xml version="1.0" encoding="UTF-8" standalone="no"?>
<!-- Created with Inkscape (http://www.inkscape.org/) -->

<svg
   width="48"
   height="48"
   viewBox="0 0 12.7 12.7"
   version="1.1"
   id="svg5"
   inkscape:version="1.1 (ce6663b3b7, 2021-05-25)"
   xmlns:inkscape="http://www.inkscape.org/namespaces/inkscape"
   xmlns:sodipodi="http://sodipodi.sourceforge.net/DTD/sodipodi-0.dtd"
   xmlns="http://www.w3.org/2000/svg"
   xmlns:svg="http://www.w3.org/2000/svg">
  <sodipodi:namedview
     id="namedview7"
     pagecolor="#ffffff"
     bordercolor="#666666"
     borderopacity="1.0"
     inkscape:pageshadow="2"
     inkscape:pageopacity="0.0"
     inkscape:pagecheckerboard="0"
     inkscape:document-units="mm"
     showgrid="false"
     units="px"
     width="48px"
     inkscape:zoom="3.0075196"
     inkscape:cx="49.376236"
     inkscape:cy="39.401239"
     inkscape:window-width="1848"
     inkscape:window-height="1016"
     inkscape:window-x="72"
     inkscape:window-y="27"
     inkscape:window-maximized="1"
     inkscape:current-layer="layer1" />
  <defs
     id="defs2" />
  <g
     inkscape:label="Layer 1"
     inkscape:groupmode="layer"
     id="layer1">
    <path
       id="path9740"
       style="fill:#000000;fill-opacity:1;stroke:none;stroke-width:0.126792;paint-order:fill markers stroke"
       d="M 5.5218922,0.3093003 4.8113756,4.9850601 C 4.6317027,6.1673992 2.2853468,6.469091 0.92645962,6.4460628 0.3143717,6.4460445 -0.14414963,7.2756651 0.04188218,7.8532578 0.20783314,8.4254704 1.0533473,8.6626783 1.6654861,8.6626566 c 0.077082,-1.351e-4 0.1539437,-0.00841 0.2293258,-0.024508 h 0.070894 C 1.3471358,8.8944069 0.94368731,9.4978815 0.94330669,10.167428 0.94327412,11.082234 1.6848817,11.823841 2.599691,11.823816 3.5144532,11.823772 4.2559775,11.082182 4.2559485,10.167428 4.2558941,9.4983559 3.8533122,8.8950205 3.2355179,8.6381486 H 5.2783512 C 4.6597811,8.8944069 4.2563291,9.4978815 4.2559485,10.167428 c -2.91e-5,0.914806 0.7415786,1.656413 1.6563916,1.656388 0.8280506,-6.76e-4 1.5285938,-0.612229 1.6403964,-1.432696 0.1118134,0.820521 0.8124291,1.432381 1.6405342,1.432696 0.9147583,-4.4e-5 1.6562823,-0.741634 1.6562583,-1.656388 -6.9e-5,-0.6691045 -0.40272,-1.2724521 -1.0205696,-1.5292794 h 1.2405886 l -0.0014,-0.024507 C 11.962282,8.5862697 12.699388,5.8295844 12.7,4.9349829 9.5405115,3.3163023 10.040319,4.0254557 9.8064682,0.30929678 Z M 6.5481596,8.6381558 H 8.5592819 C 8.0164383,8.8632503 7.6335132,9.3591279 7.5530011,9.9412453 7.4727646,9.3594536 7.0904412,8.8636531 6.5481596,8.6381558 Z"
       sodipodi:nodetypes="csccccccscccccccccccccccccc" />
  </g>
</svg>
